<svg width="17" height="17" viewBox="0 0 17 17" fill="none" xmlns="http://www.w3.org/2000/svg">
<path d="M7.43351 13.1665V9.1665H3.43351C3.06532 9.1665 2.76685 8.86803 2.76685 8.49984C2.76685 8.13165 3.06532 7.83317 3.43351 7.83317H7.43351V3.83317C7.43351 3.46498 7.73199 3.1665 8.10018 3.1665C8.46837 3.1665 8.76685 3.46498 8.76685 3.83317V7.83317H12.7668C13.135 7.83317 13.4335 8.13165 13.4335 8.49984C13.4335 8.86803 13.135 9.1665 12.7668 9.1665H8.76685V13.1665C8.76685 13.5347 8.46837 13.8332 8.10018 13.8332C7.73199 13.8332 7.43351 13.5347 7.43351 13.1665Z" fill="white"/>
</svg>
